<?xml version="1.0" encoding="utf-8"?>
<!-- Generator: Adobe Illustrator 18.0.0, SVG Export Plug-In . SVG Version: 6.00 Build 0)  -->
<!DOCTYPE svg PUBLIC "-//W3C//DTD SVG 1.1//EN" "http://www.w3.org/Graphics/SVG/1.1/DTD/svg11.dtd">
<svg version="1.1" id="Layer_1" xmlns="http://www.w3.org/2000/svg" xmlns:xlink="http://www.w3.org/1999/xlink" x="0px" y="0px"
	 viewBox="0 0 600 400" enable-background="new 0 0 600 400" xml:space="preserve">
<g>
	<polyline fill="#BDBDBD" points="380.7,277.8 235.8,277.8 264.1,215.2 352.4,215.2 380.7,277.8 	"/>
	<path fill="#FFFFFF" d="M377.5,275.8H238.9l26.5-59h85.7L377.5,275.8 M253.4,266.4H363l-18-40.2h-73.5L253.4,266.4"/>
	<polyline fill="#BDBDBD" points="368.9,270.4 247.5,270.4 268.4,219.4 348,219.4 368.9,270.4 	"/>
	<polyline fill="#9CCC65" points="368.9,270.4 355.7,238.2 326.6,238.2 321.3,252.8 282.3,270.4 368.9,270.4 	"/>
	<polygon fill="#57A0D7" points="348,219.4 331.8,219.4 326.6,238.2 355.5,237.6 	"/>
	<polyline fill="#9CCC65" points="247.5,270.4 283.8,270.4 310.9,256.7 260.7,238.2 247.5,270.4 	"/>
	<path fill="#EF4137" d="M350.5,166.1c0-23.4-19-42.3-42.3-42.3c-23.4,0-42.3,19-42.3,42.3c0,8.2,2.3,15.8,6.3,22.3h-0.1l36.1,54.5
		l36.1-54.5h-0.1C348.2,182,350.5,174.3,350.5,166.1"/>
	<path fill="#B72327" d="M308.2,123.8c-23.4,0-42.3,19-42.3,42.3c0,1.9,0.1,3.8,0.4,5.7l39.1,7.9l2.8-1.5l0,2l36.4,7.4
		c3.7-6.3,5.9-13.7,5.9-21.5C350.5,142.8,331.6,123.8,308.2,123.8z"/>
	<polygon fill="#B72327" points="302.2,191.3 308.2,187.6 308.2,172.5 314.2,191.3 308.2,191.3 	"/>
	<path fill="#FAA726" d="M354,158.1c-3.9-21.8-22.9-38.3-45.8-38.3c-22.9,0-41.9,16.5-45.8,38.3l-5.6,6.8c0,0,17.1,4.6,51.4,4.6
		c34.3,0,51.4-4.6,51.4-4.6L354,158.1z"/>
	<path fill="#F78C20" d="M326.6,123.6c-5.6-2.4-11.8-3.8-18.3-3.8c-1.6,0-3.2,0.1-4.8,0.2l-3.4,20.2l17.1,5.1L326.6,123.6z"/>
	<path fill="#FAA726" d="M317.1,145.3l3.4-27.6c-3.9-1-8-1.5-12.3-1.5c-4.2,0-8.3,0.5-12.3,1.5l3.4,27.6"/>
	<path fill="#F78C20" d="M354,158.1c-0.5-2.9-1.3-5.8-2.4-8.5c-6.3,4.1-17.2,9.3-27.7,11.5l0,0.1C337.9,160.5,347.8,159.2,354,158.1
		L354,158.1z"/>
	<polyline fill="#FFFFFF" points="322.7,254.1 323.9,253.5 324.2,252.4 328,240.3 358.9,240.3 356.9,235.4 329.5,235.4 334.8,218.2 
		330.3,218.2 319.3,249.5 310.6,253.4 259.4,235.8 257.2,241 303.1,256.7 271.4,270.9 271.7,271.6 288.6,271.6 322.7,254.1 	"/>
	<polyline fill="#D1D2D3" points="370.7,255.7 380.7,277.8 370.8,255.7 370.7,255.7 	"/>
	<polyline fill="#A2A4A4" points="368.3,255.2 377.5,275.8 314.8,275.8 315.2,277.8 380.7,277.8 370.7,255.7 368.3,255.2 	"/>
	<polyline fill="#D1D2D3" points="362.2,254 363,255.9 368.9,270.4 368.9,270.4 313.7,270.4 314.8,275.8 377.5,275.8 368.3,255.2 
		362.2,254 	"/>
	<path fill="#A2A4A4" d="M368.9,270.4h-55.3v0L368.9,270.4 M362.2,254l0.8,1.9L362.2,254 M308.1,242.9l2.1,10.3l0.4,0.1l8.7-3.9
		l1.4-4L308.1,242.9"/>
	<polyline fill="#87B25E" points="326,246.6 324.2,252.4 323.9,253.5 322.7,254.1 311.5,259.8 313.7,270.4 368.9,270.4 363,255.9 
		362.2,254 326,246.6 	"/>
	<polyline fill="#D1D2D3" points="320.7,245.5 319.3,249.5 310.6,253.4 310.2,253.2 311.5,259.8 322.7,254.1 323.9,253.5 
		324.2,252.4 326,246.6 320.7,245.5 	"/>
	<path fill="#B72327" d="M308.2,207c-0.7,0-1.3-0.6-1.3-1.3c0-0.7,0.6-1.3,1.3-1.3c4,0,7.6-2.2,9.5-5.7c0.3-0.6,1.1-0.8,1.7-0.5
		c0.6,0.3,0.8,1.1,0.5,1.7C317.6,204.3,313.1,207,308.2,207z"/>
</g>
</svg>
